<svg width="256" height="256" viewBox="0 0 256 256" xmlns="http://www.w3.org/2000/svg">
  <!-- Background gradient -->
  <defs>
    <linearGradient id="bg-gradient" x1="0%" y1="0%" x2="100%" y2="100%">
      <stop offset="0%" style="stop-color:#007991;stop-opacity:1" />
      <stop offset="100%" style="stop-color:#78ffd6;stop-opacity:1" />
    </linearGradient>
    <linearGradient id="icon-gradient" x1="0%" y1="0%" x2="100%" y2="100%">
      <stop offset="0%" style="stop-color:#ffffff;stop-opacity:1" />
      <stop offset="100%" style="stop-color:#e0fff9;stop-opacity:1" />
    </linearGradient>
  </defs>
  
  <!-- Rounded square background -->
  <rect width="256" height="256" rx="48" fill="url(#bg-gradient)"/>
  
  <!-- Excel sheet icon -->
  <g transform="translate(48, 48)">
    <!-- Main sheet -->
    <rect x="20" y="10" width="120" height="140" rx="8" fill="url(#icon-gradient)" stroke="#ffffff" stroke-width="4"/>
    
    <!-- Grid lines horizontal -->
    <line x1="20" y1="50" x2="140" y2="50" stroke="#78ffd6" stroke-width="3"/>
    <line x1="20" y1="80" x2="140" y2="80" stroke="#78ffd6" stroke-width="3"/>
    <line x1="20" y1="110" x2="140" y2="110" stroke="#78ffd6" stroke-width="3"/>
    
    <!-- Grid lines vertical -->
    <line x1="60" y1="10" x2="60" y2="150" stroke="#78ffd6" stroke-width="3"/>
    <line x1="100" y1="10" x2="100" y2="150" stroke="#78ffd6" stroke-width="3"/>
    
    <!-- Database icon overlay -->
    <ellipse cx="135" cy="120" rx="30" ry="12" fill="#007991" opacity="0.9"/>
    <rect x="105" y="120" width="60" height="35" fill="#007991" opacity="0.9"/>
    <ellipse cx="135" cy="155" rx="30" ry="12" fill="#007991"/>
    <ellipse cx="135" cy="120" rx="30" ry="12" fill="#78ffd6"/>
    
    <!-- Highlight lines on database -->
    <path d="M 110 125 Q 135 130 160 125" stroke="#ffffff" stroke-width="2" fill="none" opacity="0.5"/>
    <path d="M 110 135 Q 135 140 160 135" stroke="#ffffff" stroke-width="2" fill="none" opacity="0.5"/>
  </g>
</svg>
